<svg width="192" height="192" viewBox="0 0 192 192" fill="none" xmlns="http://www.w3.org/2000/svg">
<rect width="192" height="192" rx="24" fill="#9E22B7"/>
<path d="M132 91V38.3452C132 35.0952 127.238 34.0042 125.733 36.8845C117.641 52.3677 103.099 76.2892 90.4941 76.2892C80.1803 76.2892 71.9421 70.6057 66.6414 65.5299C64.4758 63.4563 60 65.0011 60 67.9993V91C60 92.6569 61.3431 94 63 94H129C130.657 94 132 92.6569 132 91Z" fill="white"/>
<path d="M60 100V152.655C60 155.905 64.7617 156.996 66.2671 154.115C74.3594 138.632 88.9014 114.711 101.506 114.711C111.82 114.711 120.058 120.394 125.359 125.47C127.524 127.544 132 125.999 132 123.001V100C132 98.3431 130.657 97 129 97H63C61.3431 97 60 98.3431 60 100Z" fill="white"/>
</svg>
